<?xml version="1.0" encoding="iso-8859-1"?>
<!-- Generator: Adobe Illustrator 19.0.0, SVG Export Plug-In . SVG Version: 6.00 Build 0)  -->
<svg version="1.1" id="Layer_1" xmlns="http://www.w3.org/2000/svg" xmlns:xlink="http://www.w3.org/1999/xlink" x="0px" y="0px"
	 viewBox="0 0 473.654 473.654" style="enable-background:new 0 0 473.654 473.654;" xml:space="preserve">
<circle style="fill:#A2D4DE;" cx="236.827" cy="236.827" r="236.827"/>
<path style="fill:#E8D7C8;" d="M408.78,247.474c7.494,0,13.563-0.329,13.563,8.033l0,0c0,8.369-6.069,15.157-13.563,15.157h-327.4
	c-7.487,0-13.556-6.784-13.556-15.157l0,0c0-8.362-6.772-6.208,13.272-10.665C101.144,240.387,408.78,247.474,408.78,247.474z"/>
<path style="fill:#B2987A;" d="M91.941,309.109c0,8.874-6.443,16.076-14.39,16.076l0,0c-7.947,0-14.39-7.202-14.39-16.076V165.218
	c0-8.874,6.443-16.076,14.39-16.076l0,0c7.947,0,14.39,7.202,14.39,16.076V309.109z"/>
<path style="fill:#A38669;" d="M91.941,309.109c0,8.874-6.443,16.076-14.39,16.076l0,0c-7.947,0-7.947-176.044,0-176.044l0,0
	c7.947,0,14.39,7.202,14.39,16.076V309.109z"/>
<path style="fill:#9A8267;" d="M91.941,309.109c0,8.874-6.443,16.076-14.39,16.076l0,0c-7.947,0-14.39-7.202-14.39-16.076v-24.95
	l28.776-1.021v25.971H91.941z"/>
<path style="fill:#B2987A;" d="M427.003,309.109c0,8.874-6.443,16.076-14.39,16.076l0,0c-7.947,0-14.39-7.202-14.39-16.076V185.128
	c0-8.881,6.443-16.076,14.39-16.076l0,0c7.947,0,14.39,7.195,14.39,16.076V309.109z"/>
<path style="fill:#A38669;" d="M427.003,309.109c0,8.874-6.443,16.076-14.39,16.076l0,0c-7.947,0-7.947-156.135,0-156.135l0,0
	c7.947,0,14.39,7.195,14.39,16.076V309.109z"/>
<g>
	<path style="fill:#9A8267;" d="M427.003,309.109c0,8.874-6.443,16.076-14.39,16.076l0,0c-7.947,0-14.39-7.202-14.39-16.076v-22.673
		L427,282.368v26.742H427.003z"/>
	<path style="fill:#9A8267;" d="M418.78,257.806c7.947,0,14.39,7.195,14.39,16.076l0,0c0,8.882-6.443,16.084-14.39,16.084H71.381
		c-7.947,0-14.39-7.202-14.39-16.084l0,0c0-8.882,6.443-16.076,14.39-16.076L418.78,257.806L418.78,257.806z"/>
</g>
<path style="fill:#B2987A;" d="M418.78,257.806c7.947,0,14.39,7.195,14.39,16.076l0,0c0,8.882-376.179,8.882-376.179,0l0,0
	c0-8.882,6.443-16.076,14.39-16.076L418.78,257.806L418.78,257.806z"/>
<path style="fill:#B5AFA9;" d="M92.977,248.495c-0.389,0-0.767,0.007-1.148,0.015l-0.183-29.831
	c2.285-1.802,5.157-3.033,8.751-3.194c17.127-0.767,59.358,4.252,59.818,20.803c0.352,12.737-4.229,15.026-9.435,15.026
	L92.977,248.495z"/>
<g>
	<path style="fill:#AAA198;" d="M92.977,248.495c-0.389,0-0.767,0.007-1.148,0.015l-0.093-15.542c0,0,68.079,1.825,68.079,10.093
		c0,6.937-4.929,8.253-9.035,8.253L92.977,248.495z"/>
	<path style="fill:#AAA198;" d="M398.134,224.281l-205.568-11.772c-5.217,0-35.182-0.542-44.774,11.196
		c-7.692,9.416-5.026,29.816-5.026,29.816s53.91-1.825,107.352,0.92c53.45,2.737,144.815,13.702,144.815,13.702
		C400.149,268.142,398.134,224.281,398.134,224.281z"/>
</g>
<path style="fill:#B5AFA9;" d="M398.134,222.464l-205.568-11.78c-5.217,0-35.182-0.546-44.774,11.196
	c-7.692,9.416-5.026,29.816-5.026,29.816s53.91-1.825,107.352,0.912c53.45,2.737,144.815,13.709,144.815,13.709
	C400.149,266.318,398.134,222.464,398.134,222.464z"/>
<path style="fill:#AAA198;" d="M192.566,210.684c-5.217,0-35.182-0.546-44.774,11.196c-7.692,9.416-5.026,29.816-5.026,29.816
	l17.602-0.4C160.372,220.747,192.566,210.684,192.566,210.684z"/>
<g>
</g>
<g>
</g>
<g>
</g>
<g>
</g>
<g>
</g>
<g>
</g>
<g>
</g>
<g>
</g>
<g>
</g>
<g>
</g>
<g>
</g>
<g>
</g>
<g>
</g>
<g>
</g>
<g>
</g>
</svg>
